<mxfile host="app.diagrams.net" agent="Mozilla/5.0 (Windows NT 10.0; Win64; x64) AppleWebKit/537.36 (KHTML, like Gecko) Chrome/136.0.0.0 Safari/537.36 Edg/136.0.0.0" version="26.2.14">
  <diagram id="kgpKYQtTHZ0yAKxKKP6v" name="Page-1">
    <mxGraphModel dx="1371" dy="838" grid="1" gridSize="10" guides="1" tooltips="1" connect="1" arrows="1" fold="1" page="1" pageScale="1" pageWidth="850" pageHeight="1100" math="0" shadow="0">
      <root>
        <mxCell id="0" />
        <mxCell id="1" parent="0" />
        <mxCell id="AK4zQ1OxzSkpfUwCLa1c-9" value="" style="edgeStyle=orthogonalEdgeStyle;rounded=0;orthogonalLoop=1;jettySize=auto;html=1;" edge="1" parent="1" source="AK4zQ1OxzSkpfUwCLa1c-1" target="AK4zQ1OxzSkpfUwCLa1c-8">
          <mxGeometry relative="1" as="geometry" />
        </mxCell>
        <mxCell id="AK4zQ1OxzSkpfUwCLa1c-1" value="Start" style="strokeWidth=2;html=1;shape=mxgraph.flowchart.terminator;whiteSpace=wrap;" vertex="1" parent="1">
          <mxGeometry x="110" y="200" width="100" height="60" as="geometry" />
        </mxCell>
        <mxCell id="AK4zQ1OxzSkpfUwCLa1c-12" value="" style="edgeStyle=orthogonalEdgeStyle;rounded=0;orthogonalLoop=1;jettySize=auto;html=1;" edge="1" parent="1" source="AK4zQ1OxzSkpfUwCLa1c-8" target="AK4zQ1OxzSkpfUwCLa1c-11">
          <mxGeometry relative="1" as="geometry" />
        </mxCell>
        <mxCell id="AK4zQ1OxzSkpfUwCLa1c-8" value="Mengunjungi&lt;br&gt;tempat&lt;div&gt;penelitian&lt;/div&gt;" style="shape=trapezoid;perimeter=trapezoidPerimeter;whiteSpace=wrap;html=1;fixedSize=1;strokeWidth=2;" vertex="1" parent="1">
          <mxGeometry x="280" y="200" width="120" height="60" as="geometry" />
        </mxCell>
        <mxCell id="AK4zQ1OxzSkpfUwCLa1c-14" value="" style="edgeStyle=orthogonalEdgeStyle;rounded=0;orthogonalLoop=1;jettySize=auto;html=1;" edge="1" parent="1" source="AK4zQ1OxzSkpfUwCLa1c-11" target="AK4zQ1OxzSkpfUwCLa1c-13">
          <mxGeometry relative="1" as="geometry" />
        </mxCell>
        <mxCell id="AK4zQ1OxzSkpfUwCLa1c-11" value="Meminta izin" style="shape=trapezoid;perimeter=trapezoidPerimeter;whiteSpace=wrap;html=1;fixedSize=1;strokeWidth=2;" vertex="1" parent="1">
          <mxGeometry x="480" y="200" width="120" height="60" as="geometry" />
        </mxCell>
        <mxCell id="AK4zQ1OxzSkpfUwCLa1c-13" value="Menjelaskan&lt;br&gt;&amp;nbsp;apa yang akan dilakukan" style="shape=trapezoid;perimeter=trapezoidPerimeter;whiteSpace=wrap;html=1;fixedSize=1;strokeWidth=2;" vertex="1" parent="1">
          <mxGeometry x="480" y="340" width="120" height="60" as="geometry" />
        </mxCell>
        <mxCell id="AK4zQ1OxzSkpfUwCLa1c-16" value="" style="edgeStyle=orthogonalEdgeStyle;rounded=0;orthogonalLoop=1;jettySize=auto;html=1;" edge="1" parent="1" source="AK4zQ1OxzSkpfUwCLa1c-15" target="AK4zQ1OxzSkpfUwCLa1c-13">
          <mxGeometry relative="1" as="geometry" />
        </mxCell>
        <mxCell id="AK4zQ1OxzSkpfUwCLa1c-15" value="End" style="strokeWidth=2;html=1;shape=mxgraph.flowchart.terminator;whiteSpace=wrap;" vertex="1" parent="1">
          <mxGeometry x="310" y="340" width="100" height="60" as="geometry" />
        </mxCell>
      </root>
    </mxGraphModel>
  </diagram>
</mxfile>
